# xmcd
#
# Track frame offsets: 
#        150
#        11767
#        25285
#        40790
#        56572
#        67900
#        80900
#        93587
#        107995
#        123922
#        138795
#        150420
#
# Disc length: 2260 seconds
#
# Revision: 5
# Processed by: cddbd v1.5.1PL0 Copyright (c) Steve Scherf et al.
# Submitted via: ExactAudioCopy v0.95a5
#
DISCID=9708d20c
DTITLE=Chris LeDoux - Best Of Chris LeDoux
DYEAR=1994
DGENRE=Country
TTITLE0=Whatcha Gonna Do With A Cowboy [Duet with Garth Brooks]
TTITLE1=County Fair
TTITLE2=For Your Love
TTITLE3=Riding For A Fall
TTITLE4=Under This Old Hat
TTITLE5=Cadillac Ranch
TTITLE6=Workin' Man's Dollar
TTITLE7=Look At You Girl
TTITLE8=Hooked On An 8 Second Ride
TTITLE9=Cadillac Cowboy
TTITLE10=Everytime I Roll The Dice
TTITLE11=This Cowboy's Hat
EXTD=ID3G:   2
EXTT0=Duet w/ Garth Brooks
EXTT1=
EXTT2=
EXTT3=
EXTT4=
EXTT5=
EXTT6=
EXTT7=
EXTT8=
EXTT9=
EXTT10=
EXTT11=
PLAYORDER=
